<?xml version="1.0" standalone="no"?>
<!DOCTYPE svg PUBLIC "-//W3C//DTD SVG 20010904//EN"
 "http://www.w3.org/TR/2001/REC-SVG-20010904/DTD/svg10.dtd">
<svg version="1.0" xmlns="http://www.w3.org/2000/svg"
 width="260.000000pt" height="260.000000pt" viewBox="0 0 260.000000 260.000000"
 preserveAspectRatio="xMidYMid meet">
<metadata>
Created by potrace 1.11, written by Peter Selinger 2001-2013
</metadata>
<g transform="translate(0.000000,260.000000) scale(0.100000,-0.100000)"
fill="#000000" stroke="none">
<path d="M0 1300 l0 -1300 1300 0 1300 0 0 1300 0 1300 -1300 0 -1300 0 0
-1300z m1553 927 c231 -61 367 -189 399 -375 32 -188 -50 -353 -227 -457 l-64
-37 80 -39 c219 -106 318 -308 264 -538 -22 -93 -69 -173 -139 -239 -107 -100
-248 -157 -450 -182 -99 -13 -490 -9 -648 6 l-68 7 0 932 0 933 118 7 c64 3
126 8 137 10 11 2 128 2 260 1 221 -3 248 -5 338 -29z"/>
<path d="M983 2043 l-33 -4 0 -305 0 -304 178 0 c204 1 305 15 395 58 120 57
181 146 180 263 -1 148 -97 245 -281 284 -63 14 -352 19 -439 8z"/>
<path d="M950 906 l0 -325 38 -7 c20 -4 123 -8 227 -8 169 -1 199 2 270 22 98
28 149 57 203 116 52 57 77 135 68 218 -14 142 -105 234 -281 286 -35 10 -120
16 -287 19 l-238 5 0 -326z"/>
</g>
</svg>
